<svg width="21" height="22" viewBox="0 0 21 22" fill="none" xmlns="http://www.w3.org/2000/svg">
<path d="M1.06506 10.1562C1.06506 10.3806 1.06506 21.5167 1.06506 21.5167H19.8649V10.1562H1.06506Z" fill="#EE3765"/>
<path d="M21 4.93883H0.234375V10.1843H21V4.93883Z" fill="#EE3765"/>
<g opacity="0.4">
<path d="M12.9706 10.1562H9.09436V21.5167H12.9706V10.1562Z" fill="white"/>
</g>
<path d="M10.6172 10.2123C16.3514 10.2123 21 10.1872 21 10.1562C21 10.1253 16.3514 10.1001 10.6172 10.1001C4.88291 10.1001 0.234375 10.1253 0.234375 10.1562C0.234375 10.1872 4.88291 10.2123 10.6172 10.2123Z" fill="#263238"/>
<g opacity="0.4">
<path d="M11.7523 10.1001H7.32233V4.93883H11.7523V10.1001Z" fill="white"/>
</g>
<path d="M9.73116 2.97529C9.20509 3.00334 8.67903 2.80699 8.20834 2.55453C7.73766 2.30208 7.29466 1.99352 6.82397 1.74106C5.6611 1.152 4.27672 1.0398 3.03079 1.43251C2.97541 1.46056 2.92004 1.46056 2.86466 1.51666C2.83698 1.57276 2.83698 1.65691 2.83698 1.71301C2.97541 3.3119 3.11385 4.91078 3.25229 6.50966C3.27997 6.67797 3.27997 6.84627 3.39072 6.98652C3.55685 7.15483 3.80604 7.15483 4.05522 7.15483C4.80279 7.09873 5.55035 7.01458 6.29791 6.79017C7.01778 6.56577 7.70997 6.20111 8.23603 5.66815C8.48522 5.41569 8.67903 5.10713 8.92822 4.85468C9.17741 4.60222 9.50966 4.40587 9.84191 4.37782L9.73116 2.97529Z" fill="#EE3765"/>
<path d="M18.5359 6.17306C18.5635 4.18147 18.5635 2.16183 18.2867 0.17024C17.013 -0.0822154 15.7117 0.310492 14.5489 0.927605C13.386 1.51667 12.3339 2.30208 11.1987 2.89115L10.9772 4.29367C11.3648 4.20952 11.7801 4.32172 12.14 4.49003C12.5 4.65833 12.8322 4.91079 13.1368 5.16324C13.8844 5.6962 14.6596 6.20111 15.5456 6.50967C16.4039 6.81823 17.373 6.87433 18.259 6.59382C18.3697 6.56577 18.4805 6.50967 18.5359 6.39747C18.5359 6.34137 18.5359 6.25721 18.5359 6.17306Z" fill="#EE3765"/>
<g opacity="0.3">
<path d="M9.73116 2.97529C9.20509 3.00334 8.67903 2.80699 8.20834 2.55453C7.73766 2.30208 7.29466 1.99352 6.82397 1.74106C5.6611 1.152 4.27672 1.0398 3.03079 1.43251C2.97541 1.46056 2.92004 1.46056 2.86466 1.51666C2.83698 1.57276 2.83698 1.65691 2.83698 1.71301C2.97541 3.3119 3.11385 4.91078 3.25229 6.50966C3.27997 6.67797 3.27997 6.84627 3.39072 6.98652C3.55685 7.15483 3.80604 7.15483 4.05522 7.15483C4.80279 7.09873 5.55035 7.01458 6.29791 6.79017C7.01778 6.56577 7.70997 6.20111 8.23603 5.66815C8.48522 5.41569 8.67903 5.10713 8.92822 4.85468C9.17741 4.60222 9.50966 4.40587 9.84191 4.37782L9.73116 2.97529Z" fill="black"/>
</g>
<path d="M9.73118 2.97529C9.73118 2.97529 9.73118 3.00333 9.73118 3.05944C9.73118 3.11554 9.75887 3.22774 9.75887 3.33994C9.78656 3.5924 9.81424 3.929 9.86962 4.40586V4.43391H9.84193C9.62043 4.43391 9.37124 4.54612 9.17743 4.71442C8.95593 4.88272 8.76212 5.10713 8.56831 5.35958C8.37449 5.61204 8.12531 5.86449 7.84843 6.0889C7.54387 6.3133 7.21162 6.50966 6.85168 6.64991C6.10412 6.95847 5.21812 7.09872 4.30444 7.18287C4.08294 7.18287 3.83375 7.23897 3.58456 7.15482C3.47381 7.09872 3.36306 7.01457 3.30769 6.87431C3.25231 6.76211 3.25231 6.62186 3.25231 6.50966C3.19694 6.0328 3.16925 5.52789 3.11387 5.02298C3.0585 4.26561 2.97544 3.5363 2.92006 2.83503C2.89238 2.47037 2.86469 2.13377 2.837 1.79716C2.837 1.71301 2.80931 1.62886 2.86469 1.51665C2.92006 1.4325 3.03081 1.40445 3.08619 1.3764C3.25231 1.3203 3.39075 1.29225 3.55687 1.2642C4.19369 1.152 4.8305 1.152 5.38425 1.23615C5.96568 1.3203 6.46406 1.51665 6.90706 1.74106C7.35006 1.96546 7.71 2.21792 8.04225 2.41427C8.3745 2.61063 8.67906 2.75088 8.92825 2.83503C9.17743 2.91918 9.39893 2.94723 9.53737 2.94723C9.64812 2.97528 9.73118 2.97529 9.73118 2.97529C9.73118 2.97529 9.70349 2.97529 9.67581 2.97529C9.64812 2.97529 9.59274 2.97529 9.50968 2.97529C9.37124 2.97529 9.14974 2.94723 8.90056 2.86308C8.65137 2.77893 8.31912 2.63868 7.98687 2.44232C7.65462 2.24597 7.29468 1.99351 6.85168 1.76911C6.40868 1.5447 5.91031 1.3764 5.35656 1.29225C4.80281 1.2081 4.166 1.2081 3.55687 1.3203C3.39075 1.34835 3.25231 1.40445 3.08619 1.4325C3.00312 1.46055 2.92006 1.4886 2.89238 1.5447C2.86469 1.6008 2.86469 1.68496 2.86469 1.76911C2.89237 2.10572 2.92006 2.44232 2.94775 2.80698C3.00312 3.50824 3.08619 4.23756 3.14156 4.99493C3.19694 5.49984 3.22462 6.00475 3.28 6.48161C3.28 6.59381 3.30769 6.73406 3.33537 6.81821C3.36306 6.93042 3.44612 7.01457 3.55687 7.04262C3.77837 7.12677 3.99987 7.07067 4.24906 7.07067C5.16275 6.98652 6.04875 6.84626 6.76862 6.56576C7.12856 6.42551 7.4885 6.22915 7.76537 6.00475C8.06993 5.78034 8.29143 5.52789 8.48524 5.27543C8.67906 5.02298 8.90056 4.79857 9.12206 4.63027C9.34356 4.46196 9.59274 4.37781 9.81424 4.34976L9.78656 4.37781C9.75887 3.929 9.73118 3.56435 9.70349 3.33994C9.70349 3.22774 9.70349 3.14359 9.67581 3.05944C9.73118 3.03138 9.73118 2.97529 9.73118 2.97529Z" fill="#263238"/>
<g opacity="0.3">
<path d="M18.5359 6.17306C18.5635 4.18147 18.5635 2.16183 18.2867 0.17024C17.013 -0.0822154 15.7117 0.310492 14.5489 0.927605C13.386 1.51667 12.3339 2.30208 11.1987 2.89115L10.9772 4.29367C11.3648 4.20952 11.7801 4.32172 12.14 4.49003C12.5 4.65833 12.8322 4.91079 13.1368 5.16324C13.8844 5.6962 14.6596 6.20111 15.5456 6.50967C16.4039 6.81823 17.373 6.87433 18.259 6.59382C18.3697 6.56577 18.4805 6.50967 18.5359 6.39747C18.5359 6.34137 18.5359 6.25721 18.5359 6.17306Z" fill="black"/>
</g>
<path d="M18.5358 6.17306C18.5358 6.17306 18.5358 6.22916 18.5358 6.34137C18.5358 6.39747 18.4804 6.45357 18.425 6.50967C18.3696 6.56577 18.2589 6.59382 18.1758 6.62187C17.7882 6.73407 17.1791 6.84628 16.4315 6.73407C15.684 6.62187 14.798 6.28526 13.9396 5.7523C13.7181 5.61205 13.4966 5.4718 13.2751 5.30349C13.0536 5.13519 12.8321 4.96689 12.6106 4.82663C12.3891 4.65833 12.14 4.51808 11.8631 4.43393C11.5862 4.34977 11.2817 4.29367 11.0048 4.34977H10.9494V4.29367C11.0325 3.84486 11.1155 3.368 11.1709 2.89114V2.86309H11.1986C11.7523 2.58259 12.3061 2.24598 12.8598 1.90937C13.7735 1.34836 14.6595 0.78735 15.6009 0.450743C16.5146 0.114136 17.4836 -0.0261169 18.342 0.170237H18.3696V0.198287C18.6188 1.99352 18.6188 3.48021 18.6188 4.54613C18.6188 5.07909 18.6188 5.4718 18.5911 5.78035C18.5911 5.92061 18.5911 6.03281 18.5911 6.08891C18.5358 6.08891 18.5358 6.11696 18.5358 6.17306C18.5358 6.11696 18.5358 6.08891 18.5358 6.06086C18.5358 5.97671 18.5358 5.8645 18.5358 5.7523C18.5358 5.4718 18.5358 5.05104 18.5358 4.54613C18.5081 3.50826 18.5081 1.99352 18.2589 0.198287L18.2866 0.226338C17.456 0.058034 16.5146 0.170236 15.6009 0.506843C14.6872 0.84345 13.7735 1.40446 12.8875 1.96547C12.3338 2.30208 11.78 2.63869 11.2263 2.91919L11.254 2.89114C11.1709 3.368 11.0878 3.84486 11.0048 4.29367L10.9494 4.23757C11.254 4.18147 11.5862 4.23757 11.8631 4.32172C12.14 4.43393 12.3892 4.57418 12.6383 4.74248C12.8875 4.91079 13.0813 5.07909 13.3028 5.24739C13.5243 5.4157 13.7458 5.55595 13.9673 5.6962C14.8256 6.25721 15.684 6.59382 16.4315 6.67797C17.1791 6.79017 17.7882 6.70602 18.1758 6.59382C18.2866 6.56577 18.3696 6.53772 18.425 6.48162C18.4804 6.42552 18.5081 6.36942 18.5358 6.31331C18.5358 6.22916 18.5358 6.17306 18.5358 6.17306Z" fill="#263238"/>
<path d="M9.98032 4.71442C9.98032 4.71442 9.62039 4.71443 9.17739 5.64009C8.73439 6.56576 7.32233 11.0819 7.32233 11.0819L11.4478 13.0454L10.9494 5.02298L9.98032 4.71442Z" fill="#EE3765"/>
<path d="M11.3094 4.96689L12.9707 10.4087L15.7394 7.9122C15.7394 7.9122 13.3306 4.85468 11.5309 4.54613L11.3094 4.96689Z" fill="#EE3765"/>
<g opacity="0.3">
<path d="M9.98032 4.71442C9.98032 4.71442 9.62039 4.71443 9.17739 5.64009C8.73439 6.56576 7.32233 11.0819 7.32233 11.0819L11.4478 13.0454L10.9494 5.02298L9.98032 4.71442Z" fill="black"/>
</g>
<g opacity="0.3">
<path d="M11.3094 4.96689L12.9707 10.4087L15.7394 7.9122C15.7394 7.9122 13.3306 4.85468 11.5309 4.54613L11.3094 4.96689Z" fill="black"/>
</g>
<path d="M9.98034 4.71442C9.98034 4.71442 10.008 4.71442 10.0357 4.74247C10.0911 4.77052 10.1465 4.77052 10.2295 4.79857C10.3957 4.85467 10.6448 4.93883 10.9494 5.02298C11.0602 6.48161 11.254 9.48302 11.4755 13.0454V13.1015L11.4201 13.0735C11.0602 12.9052 10.6725 12.7088 10.2572 12.5125C9.20509 12.0076 8.20834 11.5307 7.29465 11.0819H7.26697V11.0539C7.87609 9.09031 8.42984 7.43533 8.87284 6.2572C9.09434 5.66814 9.31584 5.21933 9.53734 4.96688C9.64809 4.82662 9.75884 4.77052 9.8419 4.71442C9.86959 4.68637 9.92496 4.68637 9.92496 4.68637C9.98034 4.71442 9.98034 4.71442 9.98034 4.71442C9.98034 4.71442 9.98034 4.71442 9.95265 4.71442C9.92496 4.71442 9.89728 4.74247 9.86959 4.74247C9.78653 4.77052 9.70346 4.85467 9.59271 4.99493C9.37122 5.24738 9.14972 5.69619 8.9559 6.28525C8.54059 7.46338 7.98684 9.11836 7.37772 11.0819L7.35003 11.0258C8.26372 11.4746 9.28815 11.9515 10.3403 12.4564C10.7279 12.6527 11.1155 12.821 11.5032 13.0174L11.4478 13.0454C11.2263 9.48302 11.0602 6.48161 10.9771 5.02298V5.05103C10.6725 4.93882 10.4233 4.85467 10.2572 4.79857C10.1742 4.77052 10.1188 4.74247 10.0634 4.74247C10.008 4.74247 9.98034 4.71442 9.98034 4.71442Z" fill="#263238"/>
<path d="M11.3094 4.96689C11.3094 4.96689 11.3094 4.96689 11.3094 4.93884C11.3094 4.91079 11.3371 4.88274 11.3371 4.85469C11.3648 4.77054 11.4202 4.65833 11.5033 4.51808C11.9463 4.57418 12.6384 4.88274 13.386 5.4718C14.1336 6.06086 14.9642 6.87433 15.7671 7.8561L15.7948 7.88415L15.7671 7.9122C15.3518 8.27686 14.9365 8.66957 14.4935 9.06228C13.9674 9.53914 13.4691 9.98795 12.9984 10.4087L12.943 10.4368L12.9153 10.3807C12.4446 8.80982 12.0293 7.43534 11.7248 6.48162C11.5863 6.00476 11.4756 5.61205 11.3925 5.3596C11.3648 5.21935 11.3371 5.13519 11.3094 5.05104C11.3094 4.99494 11.3094 4.96689 11.3094 4.96689C11.3094 4.96689 11.3371 4.99494 11.3371 5.07909C11.3648 5.16325 11.3925 5.2474 11.4479 5.38765C11.5309 5.66816 11.6417 6.03281 11.8078 6.50967C12.1124 7.49144 12.5277 8.83787 12.9984 10.4087L12.943 10.3807C13.4137 9.95989 13.9121 9.48304 14.4381 9.00618C14.8811 8.61347 15.2964 8.22076 15.7118 7.8561V7.9122C14.9088 6.93043 14.1059 6.11696 13.3583 5.5279C12.6108 4.93884 11.9463 4.63028 11.5033 4.54613H11.5309C11.4479 4.68638 11.3925 4.77054 11.3648 4.85469C11.3371 4.88274 11.3371 4.91079 11.3094 4.96689Z" fill="#263238"/>
<path d="M9.62041 4.04122C9.62041 4.04122 9.42659 4.06927 9.09434 4.06927C8.76209 4.09732 8.3191 4.12537 7.79303 4.18147C7.29466 4.26562 6.85166 4.34978 6.51941 4.43393C6.18716 4.51808 5.99335 4.57418 5.99335 4.57418C5.99335 4.57418 6.04872 4.54613 6.13178 4.51808C6.21485 4.49003 6.35328 4.43393 6.51941 4.40588C6.85166 4.32173 7.29466 4.20952 7.79303 4.12537C8.29141 4.04122 8.76209 4.01317 9.09434 4.01317C9.26047 4.01317 9.39891 4.01317 9.48197 4.01317C9.56503 4.01317 9.62041 4.01317 9.62041 4.04122Z" fill="#263238"/>
<path d="M9.53742 3.50825C9.53742 3.50825 9.3436 3.4802 9.03904 3.4241C8.73448 3.368 8.31917 3.3119 7.84848 3.3119C7.37779 3.28385 6.96248 3.3119 6.65792 3.3119C6.35336 3.3119 6.15955 3.33995 6.15955 3.3119C6.15955 3.3119 6.21492 3.28385 6.29798 3.28385C6.38105 3.28385 6.51948 3.2558 6.65792 3.2558C6.96248 3.22775 7.40548 3.19969 7.87617 3.22774C8.34686 3.25579 8.76217 3.3119 9.06673 3.368C9.20517 3.39605 9.3436 3.4241 9.42667 3.45215C9.50973 3.50825 9.53742 3.50825 9.53742 3.50825Z" fill="#263238"/>
<path d="M15.9332 3.00334C15.9332 3.00334 15.684 2.97529 15.324 2.94723C14.9364 2.91918 14.4104 2.89113 13.8289 2.94723C13.2475 3.00334 12.7491 3.14359 12.3892 3.28384C12.0292 3.4241 11.8077 3.50825 11.8077 3.50825C11.8077 3.50825 11.8631 3.4802 11.9462 3.4241C12.0292 3.36799 12.1954 3.31189 12.3615 3.22774C12.7214 3.08749 13.2475 2.94724 13.8289 2.86308C14.4104 2.80698 14.9364 2.83503 15.324 2.89113C15.5179 2.91919 15.6563 2.94724 15.767 2.97529C15.8778 2.97529 15.9332 3.00334 15.9332 3.00334Z" fill="#263238"/>
<path d="M15.4626 4.29367C15.4626 4.29367 15.4072 4.29367 15.3241 4.32172C15.2411 4.32172 15.1026 4.34977 14.9365 4.34977C14.6043 4.37783 14.1613 4.37783 13.6352 4.32172C13.1368 4.26562 12.6938 4.18147 12.3616 4.09732C12.1954 4.04122 12.0847 4.01317 11.9739 3.98512C11.8909 3.95707 11.8355 3.92902 11.8355 3.92902C11.8355 3.92902 12.0293 3.95707 12.3616 4.04122C12.6938 4.12537 13.1368 4.20952 13.6352 4.26562C14.1336 4.32173 14.5766 4.32172 14.9088 4.32172C15.2688 4.29367 15.4626 4.29367 15.4626 4.29367Z" fill="#263238"/>
<path d="M11.8906 4.12532C11.8906 3.84482 11.8352 3.59236 11.7521 3.31186C11.6691 3.08745 11.6691 2.86305 11.4199 2.69475C11.1984 2.58254 10.8384 2.55449 10.6169 2.69475C10.4508 2.47034 10.1186 2.52644 9.89706 2.63864C9.67556 2.75085 9.50944 3.03135 9.48175 3.28381C9.45406 3.53626 9.50944 3.81677 9.5925 4.06922C9.73094 4.43388 9.92475 4.79854 10.257 5.02294C10.5339 5.2193 10.9215 5.2754 11.2261 5.13515C11.6691 4.99489 11.8906 4.57413 11.8906 4.12532Z" fill="#EE3765"/>
<g opacity="0.3">
<path d="M11.8906 4.12532C11.8906 3.84482 11.8352 3.59236 11.7521 3.31186C11.6691 3.08745 11.6691 2.86305 11.4199 2.69475C11.1984 2.58254 10.8384 2.55449 10.6169 2.69475C10.4508 2.47034 10.1186 2.52644 9.89706 2.63864C9.67556 2.75085 9.50944 3.03135 9.48175 3.28381C9.45406 3.53626 9.50944 3.81677 9.5925 4.06922C9.73094 4.43388 9.92475 4.79854 10.257 5.02294C10.5339 5.2193 10.9215 5.2754 11.2261 5.13515C11.6691 4.99489 11.8906 4.57413 11.8906 4.12532Z" fill="black"/>
</g>
<path d="M11.8908 4.12537C11.8908 4.12537 11.8908 4.15342 11.8908 4.20952C11.8908 4.26563 11.8908 4.34978 11.8631 4.46198C11.8078 4.65833 11.6693 4.96689 11.3371 5.16325C11.1709 5.2474 10.9494 5.3035 10.7279 5.27545C10.5064 5.2474 10.2573 5.1352 10.0911 4.96689C9.89732 4.79859 9.75889 4.57418 9.64814 4.32173C9.53739 4.06927 9.45432 3.78877 9.42664 3.50826C9.42664 3.17165 9.56507 2.83505 9.81426 2.66674C9.9527 2.58259 10.0911 2.52649 10.2296 2.52649C10.368 2.52649 10.5341 2.55454 10.6172 2.69479H10.5618C10.7279 2.58259 10.8941 2.58259 11.0602 2.58259C11.2263 2.61064 11.3924 2.63869 11.5032 2.75089C11.6139 2.8631 11.6693 3.00335 11.697 3.11555C11.7247 3.22776 11.7524 3.33996 11.7801 3.45216C11.8354 3.64851 11.8631 3.81682 11.8631 3.92902C11.8631 3.98512 11.8631 4.04122 11.8631 4.06927C11.8908 4.09732 11.8908 4.12537 11.8908 4.12537C11.8908 4.12537 11.8908 4.06927 11.8631 3.95707C11.8631 3.84487 11.8078 3.67656 11.7524 3.48021C11.7247 3.36801 11.697 3.28386 11.6416 3.1436C11.6139 3.0314 11.5586 2.89115 11.4478 2.807C11.3371 2.72284 11.1986 2.66674 11.0602 2.63869C10.9218 2.63869 10.7279 2.63869 10.5895 2.72284L10.5618 2.75089L10.5341 2.72284C10.4511 2.61064 10.3403 2.58259 10.2019 2.58259C10.0634 2.58259 9.92501 2.63869 9.81426 2.69479C9.56507 2.83505 9.45432 3.17165 9.45432 3.48021C9.45432 3.76072 9.53739 4.04122 9.64814 4.26563C9.75889 4.51808 9.89732 4.71444 10.0911 4.88274C10.2573 5.05104 10.4788 5.16325 10.7003 5.16325C10.9218 5.1913 11.1156 5.13519 11.2817 5.05104C11.6139 4.88274 11.7524 4.60223 11.8078 4.40588C11.8908 4.23758 11.8908 4.12537 11.8908 4.12537Z" fill="#263238"/>
<path d="M10.0357 4.8547C10.0357 4.8547 10.1188 4.77055 10.2572 4.60224C10.3956 4.43394 10.5341 4.18148 10.6171 3.87293C10.7002 3.56437 10.7002 3.25581 10.6725 3.05946C10.6448 2.83506 10.5895 2.72285 10.6171 2.72285C10.6171 2.72285 10.7002 2.83506 10.7279 3.05946C10.7833 3.28387 10.7833 3.59242 10.7002 3.90098C10.6171 4.23759 10.451 4.49004 10.2849 4.65835C10.1465 4.7986 10.0357 4.8547 10.0357 4.8547Z" fill="#263238"/>
<path d="M11.8078 3.50826C11.8078 3.50826 11.8078 3.62046 11.7247 3.81682C11.6417 4.01317 11.5309 4.26563 11.3371 4.49003C11.1433 4.71443 10.9218 4.88274 10.728 4.99494C10.5618 5.07909 10.4234 5.13519 10.4234 5.10714C10.3957 5.07909 10.8664 4.91079 11.254 4.43393C11.6693 3.98512 11.7801 3.48021 11.8078 3.50826Z" fill="#263238"/>
</svg>
