<svg width="16" height="27" viewBox="0 0 16 27" fill="none" xmlns="http://www.w3.org/2000/svg">
<g clip-path="url(#clip0_194_2457)">
<mask id="mask0_194_2457" style="mask-type:luminance" maskUnits="userSpaceOnUse" x="0" y="0" width="28" height="27">
<path d="M13.867 27C21.5256 27 27.7341 20.9558 27.7341 13.5C27.7341 6.04416 21.5256 0 13.867 0C6.20848 0 0 6.04416 0 13.5C0 20.9558 6.20848 27 13.867 27Z" fill="white"/>
</mask>
<g mask="url(#mask0_194_2457)">
<path d="M27.981 5.36301H1.91858V22.3027H27.981V5.36301Z" fill="white"/>
<path d="M27.981 22.3027C27.981 22.1918 27.962 15.3678 27.962 5.36301L27.981 5.38151C20.0977 5.38151 11.2456 5.38151 1.93759 5.38151L1.97558 5.36301C1.97558 11.7062 1.97558 17.587 1.97558 22.3027L1.95658 22.2842C17.7422 22.2842 27.7721 22.3027 27.981 22.3027C27.7721 22.3027 17.7422 22.3027 1.91859 22.3212H1.8996V22.3027C1.8996 17.587 1.8996 11.7062 1.8996 5.36301V5.34452H1.93759C11.2646 5.34452 20.1167 5.34452 27.981 5.34452H28V5.36301C27.981 15.3678 27.981 22.1733 27.981 22.3027Z" fill="#263238"/>
</g>
<mask id="mask1_194_2457" style="mask-type:luminance" maskUnits="userSpaceOnUse" x="0" y="0" width="28" height="27">
<path d="M13.867 27C21.5256 27 27.7341 20.9558 27.7341 13.5C27.7341 6.04416 21.5256 0 13.867 0C6.20848 0 0 6.04416 0 13.5C0 20.9558 6.20848 27 13.867 27Z" fill="white"/>
</mask>
<g mask="url(#mask1_194_2457)">
<path d="M5.58482 9.09864C5.62281 9.09864 5.62281 9.09864 5.62281 9.06165C5.62281 8.98768 5.62281 8.89521 5.62281 8.82124C5.62281 8.80275 5.62281 8.76576 5.62281 8.74727C5.62281 8.67329 5.69879 8.6548 5.75578 8.6548C5.85076 8.6548 5.88875 8.69179 5.88875 8.78425C5.88875 8.85822 5.88875 8.95069 5.88875 9.02466C5.88875 9.17261 5.90775 9.32055 5.90775 9.4685C5.90775 9.57946 5.92674 9.7274 5.77478 9.7274C5.71779 9.7274 5.6418 9.69042 5.6418 9.61644C5.6418 9.59795 5.6418 9.57946 5.6418 9.56096V9.32055C5.6418 9.30206 5.62281 9.28357 5.60381 9.28357L5.39486 9.30206C5.33787 9.30206 5.33787 9.30206 5.33787 9.35754C5.33787 9.43151 5.33787 9.50548 5.33787 9.57946C5.33787 9.63494 5.33787 9.69042 5.33787 9.7459C5.33787 9.81987 5.28088 9.85685 5.2049 9.85685C5.05293 9.85685 5.07193 9.7274 5.07193 9.61644C5.07193 9.37603 5.09092 9.11713 5.09092 8.87672C5.09092 8.76576 5.07193 8.63631 5.24289 8.63631C5.29988 8.63631 5.35687 8.67329 5.35687 8.72877C5.35687 8.83973 5.33787 8.95069 5.33787 9.08014C5.33787 9.09864 5.35687 9.11713 5.37586 9.11713C5.45185 9.11713 5.52783 9.09864 5.58482 9.09864Z" fill="black"/>
<path d="M6.68661 8.76576C6.87657 8.9322 6.93356 9.26507 7.00954 9.48699C7.00954 9.50548 7.02854 9.52398 7.02854 9.54247C7.02854 9.61644 6.97155 9.65343 6.89556 9.65343C6.76259 9.65343 6.76259 9.56096 6.7436 9.45001C6.7436 9.43151 6.7246 9.39453 6.7246 9.37603C6.7246 9.35754 6.7246 9.35754 6.70561 9.35754C6.62962 9.35754 6.57263 9.35754 6.49665 9.35754C6.47765 9.35754 6.47765 9.35754 6.47765 9.35754C6.45866 9.35754 6.45866 9.35754 6.45866 9.37603C6.45866 9.41302 6.43966 9.43151 6.43966 9.4685C6.42067 9.56096 6.45866 9.67192 6.2877 9.67192C6.23071 9.67192 6.15472 9.65343 6.15472 9.57946C6.15472 9.43151 6.21171 9.26507 6.2497 9.13562C6.2687 9.06165 6.30669 8.96918 6.32569 8.89521C6.34468 8.83973 6.34468 8.74727 6.40167 8.72877C6.42067 8.71028 6.45866 8.71028 6.49665 8.71028C6.55364 8.69179 6.62962 8.72877 6.68661 8.76576ZM6.53464 9.00617C6.53464 9.02466 6.49665 9.15412 6.49665 9.15412C6.49665 9.17261 6.51565 9.17261 6.51565 9.17261H6.59163C6.61063 9.17261 6.61063 9.15412 6.61063 9.15412C6.61063 9.13562 6.55364 9.02466 6.55364 9.00617C6.55364 9.00617 6.55364 8.98768 6.53464 9.00617Z" fill="black"/>
<path d="M7.78837 8.6548C7.73138 8.74726 7.54142 8.67329 7.54142 8.89521C7.54142 9.17261 7.76937 9.43151 7.76937 9.69041C7.76937 9.89384 7.61741 9.96781 7.42745 9.96781C7.37046 9.96781 7.23749 9.96781 7.23749 9.87535C7.23749 9.80137 7.31347 9.78288 7.38946 9.78288C7.44644 9.78288 7.50343 9.80137 7.50343 9.70891C7.50343 9.4685 7.27548 9.1911 7.27548 8.89521C7.27548 8.71028 7.37046 8.59932 7.54142 8.54384C7.57941 8.52535 7.61741 8.52534 7.6554 8.52534C7.73138 8.52534 7.82636 8.58082 7.78837 8.6548Z" fill="black"/>
<path d="M8.05426 8.61781C8.05426 8.54384 8.13024 8.52534 8.18723 8.50685C8.24422 8.50685 8.3202 8.52534 8.3202 8.59932C8.3202 8.67329 8.24422 8.71028 8.18723 8.71028C8.13024 8.71028 8.05426 8.69178 8.05426 8.61781ZM8.3392 8.93219C8.3392 9.08014 8.3392 9.20959 8.3392 9.35754C8.3392 9.43151 8.3202 9.4685 8.3202 9.52397C8.30121 9.57945 8.26321 9.61644 8.18723 9.61644C8.11125 9.61644 8.05426 9.59795 8.05426 9.50548C8.05426 9.4685 8.05426 9.45 8.05426 9.41302C8.05426 9.28356 8.05426 9.26507 8.05426 9.15411C8.05426 9.08014 8.05426 9.04315 8.05426 8.96918C8.05426 8.87671 8.05426 8.82123 8.18723 8.80274C8.26321 8.82123 8.3202 8.83973 8.3392 8.93219Z" fill="black"/>
<path d="M8.90913 9.48699C8.96611 9.48699 9.0231 9.4685 9.06109 9.4685C9.11808 9.4685 9.21306 9.50549 9.21306 9.56097C9.21306 9.67192 8.96611 9.67192 8.89013 9.67192C8.81415 9.67192 8.66218 9.67192 8.60519 9.63494C8.5672 9.61644 8.5672 9.57946 8.5672 9.54247C8.5672 9.30206 8.62419 9.08014 8.64318 8.85823C8.64318 8.80275 8.64318 8.72877 8.68118 8.69179C8.70017 8.67329 8.75716 8.6548 8.79515 8.6548C8.87113 8.6548 8.92812 8.69179 8.92812 8.76576C8.92812 8.80275 8.90913 8.83973 8.90913 8.89521C8.89013 9.06165 8.83314 9.32055 8.83314 9.48699C8.85214 9.48699 8.89013 9.48699 8.90913 9.48699Z" fill="black"/>
<path d="M10.6187 8.95069C10.6187 9.17261 10.5048 9.37603 10.2768 9.45001C10.2578 9.4685 10.1818 9.4685 10.1628 9.4685C10.1438 9.4685 10.1438 9.4685 10.1438 9.48699C10.1438 9.56096 10.1438 9.65343 10.1438 9.7274C10.1438 9.76439 10.1438 9.78288 10.1438 9.81987C10.1438 9.91233 10.0869 9.93083 9.99187 9.93083C9.95388 9.93083 9.93488 9.93083 9.91589 9.91233C9.8779 9.91233 9.8779 9.87535 9.8779 9.81987C9.8779 9.70891 9.8779 9.57946 9.8779 9.4685C9.8779 9.43151 9.8399 9.39453 9.8399 9.37603C9.8399 9.33905 9.8779 9.32055 9.8779 9.28357C9.8779 9.09864 9.8779 8.9322 9.8779 8.74727C9.8779 8.71028 9.8779 8.67329 9.89689 8.6548C9.91589 8.61781 9.97288 8.59932 10.0109 8.59932C10.0489 8.59932 10.0679 8.61781 10.1058 8.61781C10.1438 8.61781 10.2198 8.59932 10.2768 8.59932C10.4858 8.58083 10.6187 8.72877 10.6187 8.95069ZM10.1628 9.28357C10.2958 9.22809 10.3528 9.08014 10.3528 8.95069C10.3528 8.87672 10.3338 8.76576 10.2388 8.76576C10.2008 8.76576 10.1248 8.78425 10.1248 8.82124C10.1248 8.89521 10.1248 8.95069 10.1248 9.02466V9.26507C10.1438 9.28357 10.1438 9.30206 10.1628 9.28357Z" fill="black"/>
<path d="M11.4735 9.63494C11.4165 9.7274 11.2076 9.7459 11.1126 9.7459H11.0366C10.8657 9.7459 10.8847 9.54247 10.8847 9.43151C10.8847 9.37603 10.8847 9.30206 10.8847 9.24658C10.8847 9.08014 10.9037 8.9137 10.9227 8.74727C10.9227 8.69179 10.9606 8.6548 11.0176 8.63631C11.0556 8.61781 11.0746 8.61781 11.1126 8.61781C11.1506 8.61781 11.1696 8.61781 11.2076 8.61781C11.2646 8.61781 11.3406 8.61781 11.4165 8.61781C11.4735 8.61781 11.5305 8.63631 11.5305 8.69179C11.5305 8.80274 11.2836 8.78425 11.2076 8.78425C11.1886 8.78425 11.1696 8.80275 11.1696 8.82124C11.1696 8.85822 11.1506 8.98768 11.1506 9.02466C11.1506 9.04316 11.1696 9.06165 11.1886 9.06165C11.2076 9.06165 11.2456 9.06165 11.2836 9.06165C11.3216 9.06165 11.3406 9.06165 11.3786 9.06165C11.4355 9.06165 11.4925 9.08014 11.4925 9.15411C11.4925 9.24658 11.3596 9.24658 11.3026 9.24658C11.2836 9.24658 11.2646 9.24658 11.2456 9.24658C11.2076 9.24658 11.1506 9.22809 11.1506 9.28357C11.1506 9.35754 11.1506 9.43151 11.1696 9.52398C11.1696 9.52398 11.1696 9.52398 11.1696 9.54247C11.1696 9.56096 11.1696 9.59795 11.1886 9.59795C11.2456 9.59795 11.3026 9.54247 11.3786 9.54247C11.4355 9.54247 11.5115 9.57946 11.5115 9.63494C11.4735 9.61644 11.4735 9.63494 11.4735 9.63494Z" fill="black"/>
<path d="M12.4423 9.76439C12.3094 9.76439 12.1004 9.59795 12.0814 9.59795C12.0624 9.59795 12.0624 9.61644 12.0624 9.61644C12.0624 9.65343 12.0814 9.69042 12.0814 9.7274C12.0814 9.78288 12.0054 9.81987 11.9484 9.81987C11.8155 9.81987 11.7965 9.7274 11.7965 9.61644C11.7775 9.37603 11.7775 9.15412 11.7585 8.9137C11.7585 8.85822 11.7395 8.76576 11.7775 8.71028C11.8345 8.6548 12.0434 8.63631 12.1194 8.63631C12.2904 8.63631 12.4803 8.71028 12.4803 8.9137C12.4803 9.11713 12.3283 9.26507 12.1764 9.35754L12.1574 9.37603C12.1574 9.37603 12.1574 9.39453 12.1764 9.39453C12.2714 9.45001 12.3853 9.52398 12.4803 9.57946C12.5183 9.59795 12.5563 9.59795 12.5563 9.67192C12.5563 9.7459 12.4993 9.76439 12.4423 9.76439ZM12.1194 8.82124C12.1004 8.82124 12.0244 8.82124 12.0244 8.83973C12.0244 8.9322 12.0244 9.04316 12.0434 9.13562C12.0434 9.13562 12.0434 9.15411 12.0624 9.15411H12.0814C12.1384 9.09864 12.2144 8.98768 12.2144 8.89521C12.2144 8.83973 12.1764 8.82124 12.1194 8.82124Z" fill="black"/>
<path d="M13.6961 9.15411C13.6961 9.41301 13.4492 9.59795 13.1832 9.59795C12.9363 9.59795 12.7843 9.43151 12.7843 9.1911C12.7843 9.02466 12.8793 8.83973 13.0502 8.78425C13.1072 8.76575 13.1832 8.76575 13.2592 8.76575C13.4872 8.76575 13.6961 8.93219 13.6961 9.15411ZM13.4302 9.1726C13.4302 9.06164 13.3732 8.95069 13.2402 8.95069C13.0882 8.95069 13.0502 9.04315 13.0502 9.1911C13.0502 9.24658 13.0882 9.41301 13.1832 9.41301C13.3162 9.41301 13.4302 9.30206 13.4302 9.1726Z" fill="black"/>
<path d="M14.247 9.48699C14.3039 9.48699 14.3609 9.4685 14.3989 9.4685C14.4559 9.4685 14.5509 9.50549 14.5509 9.56097C14.5509 9.67192 14.3039 9.67192 14.228 9.67192C14.152 9.67192 14 9.67192 13.943 9.63494C13.905 9.61644 13.905 9.57946 13.905 9.54247C13.905 9.30206 13.962 9.08014 13.981 8.85823C13.981 8.80275 13.981 8.72877 14.019 8.69179C14.038 8.67329 14.095 8.6548 14.133 8.6548C14.209 8.6548 14.266 8.69179 14.266 8.76576C14.266 8.80275 14.247 8.83973 14.247 8.89521C14.228 9.06165 14.171 9.32055 14.171 9.48699C14.19 9.48699 14.209 9.48699 14.247 9.48699Z" fill="black"/>
<path d="M15.3677 9.63494C15.3107 9.7274 15.1018 9.7459 15.0068 9.7459H14.9308C14.7598 9.7459 14.7788 9.54247 14.7788 9.43151C14.7788 9.37603 14.7788 9.30206 14.7788 9.24658C14.7788 9.08014 14.7978 8.9137 14.8168 8.74727C14.8168 8.69179 14.8548 8.6548 14.9118 8.63631C14.9498 8.61781 14.9688 8.61781 15.0068 8.61781C15.0448 8.61781 15.0638 8.61781 15.1018 8.61781C15.1587 8.61781 15.2347 8.61781 15.3107 8.61781C15.3677 8.61781 15.4247 8.63631 15.4247 8.69179C15.4247 8.80274 15.1777 8.78425 15.1018 8.78425C15.0828 8.78425 15.0638 8.80275 15.0638 8.82124C15.0638 8.85822 15.0448 8.98768 15.0448 9.02466C15.0448 9.04316 15.0638 9.06165 15.0828 9.06165C15.1018 9.06165 15.1397 9.06165 15.1777 9.06165C15.2157 9.06165 15.2347 9.06165 15.2727 9.06165C15.3297 9.06165 15.3867 9.08014 15.3867 9.15411C15.3867 9.24658 15.2537 9.24658 15.1967 9.24658C15.1777 9.24658 15.1587 9.24658 15.1397 9.24658C15.1018 9.24658 15.0448 9.22809 15.0448 9.28357C15.0448 9.35754 15.0448 9.43151 15.0638 9.52398C15.0638 9.52398 15.0638 9.52398 15.0638 9.54247C15.0638 9.56096 15.0638 9.59795 15.0828 9.59795C15.1397 9.59795 15.1967 9.54247 15.2727 9.54247C15.3297 9.54247 15.4057 9.57946 15.4057 9.63494C15.3677 9.61644 15.3677 9.63494 15.3677 9.63494Z" fill="black"/>
<path d="M15.7096 9.81987C15.6526 9.74589 15.6716 9.17261 15.6716 9.06165C15.6716 8.98768 15.6716 8.9322 15.6526 8.85822V8.83973C15.6526 8.76576 15.7286 8.74726 15.7856 8.74726C15.8426 8.74726 15.8996 8.76576 15.9186 8.82124C15.9376 8.9137 15.9376 9.08014 15.9376 9.17261C15.9376 9.1911 15.9566 9.20959 15.9756 9.20959C16.0326 9.20959 16.0896 9.1911 16.1465 9.1911C16.1655 9.1911 16.1655 9.1911 16.1655 9.17261C16.1655 9.09863 16.1655 9.00617 16.1655 8.9322C16.1655 8.85822 16.1655 8.76576 16.1655 8.69179C16.1655 8.61781 16.2415 8.59932 16.2985 8.59932C16.3935 8.59932 16.4315 8.63631 16.4315 8.72877C16.4315 8.76576 16.4315 8.78425 16.4315 8.82124C16.4315 8.9322 16.4315 9.04316 16.4315 9.15411C16.4315 9.20959 16.5455 9.1911 16.5455 9.28357C16.5455 9.32055 16.5075 9.35754 16.4695 9.37603C16.4505 9.37603 16.4505 9.37603 16.4505 9.39452C16.4505 9.43151 16.4505 9.48699 16.4505 9.52398C16.4505 9.59795 16.4695 9.65343 16.4695 9.7274C16.4695 9.81987 16.4315 9.85685 16.3365 9.85685C16.1845 9.85685 16.2035 9.74589 16.1845 9.63494C16.1845 9.56096 16.1845 9.48699 16.1655 9.43151C16.1655 9.41302 16.1465 9.39452 16.1275 9.39452C16.0706 9.39452 16.0326 9.41302 15.9756 9.41302C15.9566 9.41302 15.9186 9.41302 15.9186 9.45C15.9186 9.52398 15.9186 9.59795 15.9186 9.65343C15.9186 9.70891 15.9376 9.74589 15.9376 9.80137C15.9376 9.87535 15.8616 9.89384 15.8046 9.89384C15.7856 9.87535 15.7476 9.85685 15.7096 9.81987Z" fill="black"/>
</g>
<mask id="mask2_194_2457" style="mask-type:luminance" maskUnits="userSpaceOnUse" x="0" y="0" width="28" height="27">
<path d="M13.867 27C21.5256 27 27.7341 20.9558 27.7341 13.5C27.7341 6.04416 21.5256 0 13.867 0C6.20848 0 0 6.04416 0 13.5C0 20.9558 6.20848 27 13.867 27Z" fill="white"/>
</mask>
<g mask="url(#mask2_194_2457)">
<path d="M6.70559 12.2795C6.36366 12.2795 6.02173 12.0945 5.86977 11.7986L5.56583 12.0575L5.43286 11.9281L5.83178 11.5767L5.98374 11.6137C6.09772 11.9281 6.45864 12.1315 6.78157 12.0945C7.1045 12.0575 7.40844 11.7801 7.44643 11.4473L7.61739 11.4103C7.84534 11.8911 8.56719 11.9281 9.08008 11.9281L22.3962 11.8171V12.0021L9.08008 12.113C8.58619 12.113 7.92133 12.076 7.5794 11.6692C7.44643 11.9836 7.14249 12.224 6.80057 12.261C6.76258 12.2795 6.74358 12.2795 6.70559 12.2795Z" fill="#231F20"/>
</g>
<mask id="mask3_194_2457" style="mask-type:luminance" maskUnits="userSpaceOnUse" x="0" y="0" width="28" height="27">
<path d="M13.867 27C21.5256 27 27.7341 20.9558 27.7341 13.5C27.7341 6.04416 21.5256 0 13.867 0C6.20848 0 0 6.04416 0 13.5C0 20.9558 6.20848 27 13.867 27Z" fill="white"/>
</mask>
<g mask="url(#mask3_194_2457)">
<path d="M7.06647 13.8884C6.97149 13.8884 6.89551 13.8699 6.81952 13.8514C6.70555 13.8144 6.59157 13.7774 6.4776 13.7219C6.38262 13.6849 6.28764 13.6295 6.17366 13.611C6.0027 13.5555 5.75575 13.5555 5.62278 13.7034L5.48981 13.574C5.67977 13.3706 5.9837 13.3706 6.23065 13.4445C6.34462 13.4815 6.4586 13.5185 6.55358 13.5555C6.66755 13.5925 6.76253 13.6479 6.87651 13.6664C7.04747 13.7034 7.29442 13.7034 7.4084 13.574L7.48438 13.537L8.96606 13.6295L8.94707 13.8144L7.50338 13.7404C7.3894 13.8329 7.23743 13.8884 7.06647 13.8884Z" fill="#231F20"/>
</g>
<mask id="mask4_194_2457" style="mask-type:luminance" maskUnits="userSpaceOnUse" x="0" y="0" width="28" height="27">
<path d="M13.867 27C21.5256 27 27.7341 20.9558 27.7341 13.5C27.7341 6.04416 21.5256 0 13.867 0C6.20848 0 0 6.04416 0 13.5C0 20.9558 6.20848 27 13.867 27Z" fill="white"/>
</mask>
<g mask="url(#mask4_194_2457)">
<path d="M7.50337 15.4788H7.48438C7.31341 15.4603 7.23743 15.3308 7.18044 15.2199C7.14245 15.1644 7.10446 15.0904 7.06646 15.0534C6.95249 14.961 6.76253 15.0534 6.70554 15.0719C6.66755 15.0904 6.64855 15.1089 6.61056 15.1274C6.49659 15.1829 6.38261 15.2568 6.23064 15.2568C6.09767 15.2568 5.9647 15.2014 5.88872 15.1089C5.86972 15.0904 5.86972 15.0904 5.86972 15.0719L5.54679 15.3493L5.41382 15.2014L5.85072 14.813L6.00269 14.9055C6.00269 14.924 6.00269 14.961 6.02169 14.9794C6.05968 15.0349 6.13566 15.0534 6.19265 15.0534C6.28763 15.0534 6.38261 14.9979 6.49659 14.9425C6.53458 14.924 6.57257 14.9055 6.61056 14.887C6.81952 14.776 7.02847 14.776 7.16144 14.887C7.23743 14.9425 7.27542 15.0349 7.33241 15.1089C7.38939 15.2014 7.42739 15.2753 7.48438 15.2753C7.54136 15.2753 7.59835 15.2199 7.67433 15.1089C7.75032 14.9979 7.8453 14.85 8.01626 14.85C8.18722 14.85 8.26321 14.9794 8.33919 15.0719C8.37718 15.1274 8.41517 15.1829 8.47216 15.2199C8.56714 15.2753 8.71911 15.2199 8.79509 15.2014C8.83309 15.1829 8.85208 15.1644 8.89007 15.1459C8.98505 15.0904 9.09903 15.0349 9.213 15.0164C9.32698 14.9979 9.44096 15.0349 9.53593 15.0904C9.59292 15.1459 9.64991 15.2199 9.64991 15.2938L9.45995 15.3123C9.45995 15.2938 9.44096 15.2568 9.42196 15.2384C9.38397 15.2014 9.30798 15.1829 9.251 15.2014C9.15602 15.2199 9.08003 15.2568 9.00405 15.2938C8.96606 15.3123 8.92807 15.3308 8.89007 15.3493C8.70011 15.4418 8.52915 15.4418 8.39618 15.3678C8.3202 15.3123 8.26321 15.2384 8.20622 15.1644C8.14923 15.0719 8.09224 15.0164 8.03526 15.0164C7.97827 15.0164 7.92128 15.0904 7.8453 15.2014C7.75032 15.3308 7.65534 15.4788 7.50337 15.4788Z" fill="#231F20"/>
</g>
<mask id="mask5_194_2457" style="mask-type:luminance" maskUnits="userSpaceOnUse" x="0" y="0" width="28" height="27">
<path d="M13.867 27C21.5256 27 27.7341 20.9558 27.7341 13.5C27.7341 6.04416 21.5256 0 13.867 0C6.20848 0 0 6.04416 0 13.5C0 20.9558 6.20848 27 13.867 27Z" fill="white"/>
</mask>
<g mask="url(#mask5_194_2457)">
<path d="M6.59158 17.3466C6.51559 17.3466 6.43961 17.3281 6.38262 17.3096C6.21166 17.2541 6.07869 17.1062 6.04069 16.9397C6.04069 16.9212 6.0217 16.8842 6.0217 16.8658L5.66078 17.0877L5.5658 16.9212L6.13567 16.5699L6.24965 16.7178C6.19266 16.7733 6.19266 16.8473 6.21166 16.8842C6.23065 16.9952 6.32563 17.0877 6.42061 17.1247C6.61057 17.1801 6.83852 17.1062 7.06647 17.0322C7.37041 16.9212 7.69334 16.7918 7.95928 16.6253L8.09225 16.6623C8.22523 16.9952 8.68113 17.1986 9.02306 17.0877L9.08004 17.2541C8.66213 17.3836 8.16824 17.1986 7.95928 16.8288C7.69334 16.9767 7.4084 17.0877 7.12346 17.1986C6.97149 17.2726 6.78154 17.3466 6.59158 17.3466Z" fill="#231F20"/>
</g>
<mask id="mask6_194_2457" style="mask-type:luminance" maskUnits="userSpaceOnUse" x="0" y="0" width="28" height="27">
<path d="M13.867 27C21.5256 27 27.7341 20.9558 27.7341 13.5C27.7341 6.04416 21.5256 0 13.867 0C6.20848 0 0 6.04416 0 13.5C0 20.9558 6.20848 27 13.867 27Z" fill="white"/>
</mask>
<g mask="url(#mask6_194_2457)">
<path d="M10.6187 13.7959L10.5807 13.0192L10.7707 13.0007L10.8087 13.7959H10.6187Z" fill="#231F20"/>
</g>
<mask id="mask7_194_2457" style="mask-type:luminance" maskUnits="userSpaceOnUse" x="0" y="0" width="28" height="27">
<path d="M13.867 27C21.5256 27 27.7341 20.9558 27.7341 13.5C27.7341 6.04416 21.5256 0 13.867 0C6.20848 0 0 6.04416 0 13.5C0 20.9558 6.20848 27 13.867 27Z" fill="white"/>
</mask>
<g mask="url(#mask7_194_2457)">
<path d="M11.2927 13.0288L11.1062 13.0638L11.2355 13.7176L11.4221 13.6826L11.2927 13.0288Z" fill="#231F20"/>
</g>
<mask id="mask8_194_2457" style="mask-type:luminance" maskUnits="userSpaceOnUse" x="0" y="0" width="28" height="27">
<path d="M13.867 27C21.5256 27 27.7341 20.9558 27.7341 13.5C27.7341 6.04416 21.5256 0 13.867 0C6.20848 0 0 6.04416 0 13.5C0 20.9558 6.20848 27 13.867 27Z" fill="white"/>
</mask>
<g mask="url(#mask8_194_2457)">
<path d="M11.9929 12.9909L11.8068 13.0278L11.981 13.8614L12.1671 13.8245L11.9929 12.9909Z" fill="#231F20"/>
</g>
<mask id="mask9_194_2457" style="mask-type:luminance" maskUnits="userSpaceOnUse" x="0" y="0" width="28" height="27">
<path d="M13.867 27C21.5256 27 27.7341 20.9558 27.7341 13.5C27.7341 6.04416 21.5256 0 13.867 0C6.20848 0 0 6.04416 0 13.5C0 20.9558 6.20848 27 13.867 27Z" fill="white"/>
</mask>
<g mask="url(#mask9_194_2457)">
<path d="M10.9797 13.8884C10.9037 13.8884 10.8277 13.8884 10.7517 13.8699L10.7707 13.6849C11.3406 13.7589 12.0814 13.5 12.5183 13.0747L12.6703 13.1301L12.8033 13.7774L12.6133 13.8144L12.5373 13.3151C12.1004 13.6664 11.5115 13.8884 10.9797 13.8884Z" fill="#231F20"/>
</g>
<mask id="mask10_194_2457" style="mask-type:luminance" maskUnits="userSpaceOnUse" x="0" y="0" width="28" height="27">
<path d="M13.867 27C21.5256 27 27.7341 20.9558 27.7341 13.5C27.7341 6.04416 21.5256 0 13.867 0C6.20848 0 0 6.04416 0 13.5C0 20.9558 6.20848 27 13.867 27Z" fill="white"/>
</mask>
<g mask="url(#mask10_194_2457)">
<path d="M13.4087 13.2325L13.2202 13.2548L13.3004 13.8973L13.489 13.875L13.4087 13.2325Z" fill="#231F20"/>
</g>
<mask id="mask11_194_2457" style="mask-type:luminance" maskUnits="userSpaceOnUse" x="0" y="0" width="28" height="27">
<path d="M13.867 27C21.5256 27 27.7341 20.9558 27.7341 13.5C27.7341 6.04416 21.5256 0 13.867 0C6.20848 0 0 6.04416 0 13.5C0 20.9558 6.20848 27 13.867 27Z" fill="white"/>
</mask>
<g mask="url(#mask11_194_2457)">
<path d="M14.0896 13.0485L13.9003 13.0639L13.9477 13.6167L14.1369 13.6014L14.0896 13.0485Z" fill="#231F20"/>
</g>
<mask id="mask12_194_2457" style="mask-type:luminance" maskUnits="userSpaceOnUse" x="0" y="0" width="28" height="27">
<path d="M13.867 27C21.5256 27 27.7341 20.9558 27.7341 13.5C27.7341 6.04416 21.5256 0 13.867 0C6.20848 0 0 6.04416 0 13.5C0 20.9558 6.20848 27 13.867 27Z" fill="white"/>
</mask>
<g mask="url(#mask12_194_2457)">
<path d="M10.8087 15.3678L10.7707 14.961L10.9607 14.9425L10.9986 15.3493L10.8087 15.3678Z" fill="#231F20"/>
</g>
<mask id="mask13_194_2457" style="mask-type:luminance" maskUnits="userSpaceOnUse" x="0" y="0" width="28" height="27">
<path d="M13.867 27C21.5256 27 27.7341 20.9558 27.7341 13.5C27.7341 6.04416 21.5256 0 13.867 0C6.20848 0 0 6.04416 0 13.5C0 20.9558 6.20848 27 13.867 27Z" fill="white"/>
</mask>
<g mask="url(#mask13_194_2457)">
<path d="M11.5214 14.8934L11.3345 14.9265L11.4297 15.436L11.6166 15.4029L11.5214 14.8934Z" fill="#231F20"/>
</g>
<mask id="mask14_194_2457" style="mask-type:luminance" maskUnits="userSpaceOnUse" x="0" y="0" width="28" height="27">
<path d="M13.867 27C21.5256 27 27.7341 20.9558 27.7341 13.5C27.7341 6.04416 21.5256 0 13.867 0C6.20848 0 0 6.04416 0 13.5C0 20.9558 6.20848 27 13.867 27Z" fill="white"/>
</mask>
<g mask="url(#mask14_194_2457)">
<path d="M12.0978 14.8708L11.9151 14.9214L12.0659 15.4372L12.2486 15.3866L12.0978 14.8708Z" fill="#231F20"/>
</g>
<mask id="mask15_194_2457" style="mask-type:luminance" maskUnits="userSpaceOnUse" x="0" y="0" width="28" height="27">
<path d="M13.867 27C21.5256 27 27.7341 20.9558 27.7341 13.5C27.7341 6.04416 21.5256 0 13.867 0C6.20848 0 0 6.04416 0 13.5C0 20.9558 6.20848 27 13.867 27Z" fill="white"/>
</mask>
<g mask="url(#mask15_194_2457)">
<path d="M12.8033 15.5897C12.4803 15.4418 12.1194 15.3493 11.7585 15.2569C11.3786 15.1644 10.9987 15.0719 10.6757 14.9055L10.7517 14.739C11.0746 14.887 11.4356 14.9795 11.7965 15.0719C12.0814 15.1459 12.3664 15.2199 12.6513 15.3123L12.5753 15.1644L12.7463 15.0904L12.9362 15.4603L12.8033 15.5897Z" fill="#231F20"/>
</g>
<mask id="mask16_194_2457" style="mask-type:luminance" maskUnits="userSpaceOnUse" x="0" y="0" width="28" height="27">
<path d="M13.867 27C21.5256 27 27.7341 20.9558 27.7341 13.5C27.7341 6.04416 21.5256 0 13.867 0C6.20848 0 0 6.04416 0 13.5C0 20.9558 6.20848 27 13.867 27Z" fill="white"/>
</mask>
<g mask="url(#mask16_194_2457)">
<path d="M14.0792 15.2102L13.8929 15.2465L14.0344 15.9356L14.2207 15.8993L14.0792 15.2102Z" fill="#231F20"/>
</g>
<mask id="mask17_194_2457" style="mask-type:luminance" maskUnits="userSpaceOnUse" x="0" y="0" width="28" height="27">
<path d="M13.867 27C21.5256 27 27.7341 20.9558 27.7341 13.5C27.7341 6.04416 21.5256 0 13.867 0C6.20848 0 0 6.04416 0 13.5C0 20.9558 6.20848 27 13.867 27Z" fill="white"/>
</mask>
<g mask="url(#mask17_194_2457)">
<path d="M14.5534 15.2093L14.3677 15.2481L14.5109 15.8991L14.6967 15.8603L14.5534 15.2093Z" fill="#231F20"/>
</g>
<mask id="mask18_194_2457" style="mask-type:luminance" maskUnits="userSpaceOnUse" x="0" y="0" width="28" height="27">
<path d="M13.867 27C21.5256 27 27.7341 20.9558 27.7341 13.5C27.7341 6.04416 21.5256 0 13.867 0C6.20848 0 0 6.04416 0 13.5C0 20.9558 6.20848 27 13.867 27Z" fill="white"/>
</mask>
<g mask="url(#mask18_194_2457)">
<path d="M15.0739 15.2783L14.8975 15.347L15.088 15.8106L15.2644 15.742L15.0739 15.2783Z" fill="#231F20"/>
</g>
<mask id="mask19_194_2457" style="mask-type:luminance" maskUnits="userSpaceOnUse" x="0" y="0" width="28" height="27">
<path d="M13.867 27C21.5256 27 27.7341 20.9558 27.7341 13.5C27.7341 6.04416 21.5256 0 13.867 0C6.20848 0 0 6.04416 0 13.5C0 20.9558 6.20848 27 13.867 27Z" fill="white"/>
</mask>
<g mask="url(#mask19_194_2457)">
<path d="M15.6716 16.0336L15.4627 15.9041C14.9498 15.6082 14.3419 15.5158 13.7531 15.4788L13.772 15.2938C14.2849 15.3308 14.8738 15.4233 15.3677 15.6452L15.2347 15.2014L15.4247 15.1459L15.6716 16.0336Z" fill="#231F20"/>
</g>
<mask id="mask20_194_2457" style="mask-type:luminance" maskUnits="userSpaceOnUse" x="0" y="0" width="28" height="27">
<path d="M13.867 27C21.5256 27 27.7341 20.9558 27.7341 13.5C27.7341 6.04416 21.5256 0 13.867 0C6.20848 0 0 6.04416 0 13.5C0 20.9558 6.20848 27 13.867 27Z" fill="white"/>
</mask>
<g mask="url(#mask20_194_2457)">
<path d="M10.8939 16.9099L10.7074 16.9449L10.8367 17.5987L11.0233 17.5637L10.8939 16.9099Z" fill="#231F20"/>
</g>
<mask id="mask21_194_2457" style="mask-type:luminance" maskUnits="userSpaceOnUse" x="0" y="0" width="28" height="27">
<path d="M13.867 27C21.5256 27 27.7341 20.9558 27.7341 13.5C27.7341 6.04416 21.5256 0 13.867 0C6.20848 0 0 6.04416 0 13.5C0 20.9558 6.20848 27 13.867 27Z" fill="white"/>
</mask>
<g mask="url(#mask21_194_2457)">
<path d="M11.4694 16.7498L11.28 16.764L11.328 17.3725L11.5175 17.3583L11.4694 16.7498Z" fill="#231F20"/>
</g>
<mask id="mask22_194_2457" style="mask-type:luminance" maskUnits="userSpaceOnUse" x="0" y="-1" width="28" height="29">
<path d="M14 27.2589C21.732 27.2589 28 20.9329 28 13.1295C28 5.32597 21.732 -1 14 -1C6.26801 -1 0 5.32597 0 13.1295C0 20.9329 6.26801 27.2589 14 27.2589Z" fill="white"/>
</mask>
<g mask="url(#mask22_194_2457)">
<path d="M5.53802 11.5283L5.46002 16.4388C5.46002 17.2741 5.61602 18.4891 6.96802 18.4637C8.13802 18.3372 8.45003 17.2488 8.45003 16.4894C8.45003 16.1097 8.45003 15.806 8.45003 15.7807C8.45003 15.7807 9.72403 15.6794 9.85403 14.4392C9.90603 13.8317 9.90603 12.6167 9.90603 11.4777C9.90603 10.288 8.94403 9.27553 7.69602 9.1996H7.56602C6.26602 9.14897 5.51202 10.2374 5.53802 11.5283Z" fill="#FBBF9E"/>
<path d="M8.47595 15.7554C8.47595 15.7554 7.66995 15.7554 6.86395 15.1732C6.86395 15.1732 7.20195 16.1097 8.47595 16.0844V15.7554Z" fill="#F7996E"/>
<path d="M7.74796 11.9586C7.72196 11.9839 7.56596 11.8573 7.35796 11.8573C7.14996 11.8573 6.99396 11.9586 6.96796 11.9333C6.96796 11.9333 6.99396 11.8827 7.04596 11.832C7.12396 11.7814 7.22796 11.7308 7.35796 11.7561C7.48796 11.7561 7.59196 11.8067 7.66996 11.8573C7.74796 11.908 7.77396 11.9586 7.74796 11.9586Z" fill="#263238"/>
<path d="M7.74797 12.3889C7.74797 12.4648 7.66997 12.5407 7.56597 12.5407C7.46197 12.5407 7.40997 12.4648 7.40997 12.3889C7.40997 12.3129 7.48797 12.237 7.59197 12.237C7.66997 12.237 7.74797 12.3129 7.74797 12.3889Z" fill="#263238"/>
<path d="M8.29398 13.4014C8.29398 13.4014 8.42398 13.3761 8.60598 13.3761C8.65798 13.3761 8.70998 13.3761 8.70998 13.3254C8.73598 13.3001 8.70998 13.2495 8.68398 13.1736C8.65798 13.047 8.60598 12.9204 8.55398 12.7939C8.39798 12.2623 8.26798 11.8067 8.29398 11.8067C8.31998 11.8067 8.47598 12.237 8.63198 12.7686C8.68398 12.8951 8.70998 13.0217 8.73598 13.1482C8.76198 13.1989 8.78798 13.2748 8.73598 13.3507C8.70998 13.3761 8.68398 13.4014 8.65798 13.4267C8.63198 13.4267 8.60598 13.4267 8.57998 13.4267C8.39798 13.4267 8.29398 13.4014 8.29398 13.4014Z" fill="#263238"/>
<path d="M7.66989 11.1739C7.64389 11.2245 7.48789 11.1739 7.27989 11.1992C7.07189 11.1992 6.91589 11.2499 6.88989 11.1992C6.88989 11.1739 6.91589 11.1233 6.96789 11.098C7.04589 11.0474 7.14989 11.022 7.25389 11.022C7.38389 11.022 7.48789 11.0474 7.56589 11.0727C7.64389 11.1233 7.66989 11.1739 7.66989 11.1739Z" fill="#263238"/>
<path d="M9.67197 11.5789C9.64597 11.6042 9.48997 11.5789 9.28197 11.5789C9.07397 11.5789 8.91797 11.6042 8.89197 11.5536C8.89197 11.5283 8.91797 11.503 8.99597 11.4777C9.07397 11.4524 9.17797 11.427 9.28197 11.427C9.41197 11.427 9.51597 11.4524 9.56797 11.503C9.64597 11.503 9.69797 11.5536 9.67197 11.5789Z" fill="#263238"/>
<path d="M5.56396 12.4395C5.53796 12.4395 4.70596 12.1358 4.67996 12.9711C4.65396 13.8063 5.51196 13.6798 5.53796 13.6545C5.53796 13.6292 5.56396 12.4395 5.56396 12.4395Z" fill="#FBBF9E"/>
<path d="M5.27794 13.3254C5.27794 13.3254 5.25194 13.3254 5.22594 13.3507C5.19994 13.3507 5.14794 13.376 5.12194 13.3507C5.04394 13.3254 4.96594 13.1736 4.96594 13.0217C4.96594 12.9457 4.99194 12.8698 5.01794 12.8192C5.04394 12.7686 5.09594 12.7179 5.14794 12.7179C5.19994 12.7179 5.22594 12.7432 5.22594 12.7686C5.22594 12.7939 5.22594 12.8192 5.22594 12.8192C5.22594 12.8192 5.25194 12.7939 5.25194 12.7686C5.25194 12.7432 5.25194 12.7433 5.22594 12.7179C5.19994 12.6926 5.17394 12.6926 5.14794 12.6926C5.06994 12.6926 5.01794 12.7433 4.99194 12.8192C4.96594 12.8951 4.93994 12.9711 4.93994 13.047C4.93994 13.2242 5.01794 13.376 5.14794 13.4267C5.19994 13.452 5.25194 13.4267 5.27794 13.4014C5.27794 13.3507 5.27794 13.3254 5.27794 13.3254Z" fill="#F7996E"/>
<path d="M8.08598 13.9835C8.08598 13.9582 7.92998 13.9076 7.79998 13.7557C7.74798 13.6798 7.69598 13.6039 7.66998 13.5279C7.64398 13.4773 7.61798 13.4267 7.61798 13.4267C7.61798 13.4267 7.61798 13.4773 7.61798 13.5279C7.64398 13.6039 7.66998 13.6798 7.72198 13.781C7.79998 13.857 7.87798 13.9329 7.95598 13.9582C8.03398 13.9835 8.08598 13.9835 8.08598 13.9835Z" fill="#263238"/>
<path d="M9.69797 12.0345C9.67197 12.0598 9.51597 11.9333 9.30797 11.9333C9.09997 11.9333 8.94397 12.0345 8.91797 12.0092C8.91797 12.0092 8.94397 11.9586 8.99597 11.908C9.07397 11.8573 9.17797 11.8067 9.30797 11.832C9.43797 11.832 9.54197 11.8827 9.61997 11.9333C9.67197 11.9839 9.69797 12.0345 9.69797 12.0345Z" fill="#263238"/>
<path d="M9.64598 12.4395C9.64598 12.5154 9.56798 12.5914 9.46398 12.5914C9.35998 12.5914 9.30798 12.5154 9.30798 12.4395C9.30798 12.3636 9.38598 12.2876 9.48998 12.2876C9.56798 12.2876 9.64598 12.3636 9.64598 12.4395Z" fill="#263238"/>
<path d="M10.79 9.80709C10.634 9.52865 10.244 9.4021 9.93201 9.55397C10.01 9.17429 9.80201 8.74399 9.43801 8.5668C9.07401 8.38962 8.60601 8.46556 8.32001 8.7693C8.29401 8.66805 8.21601 8.5668 8.13801 8.51618C8.03401 8.46556 7.93001 8.44024 7.82601 8.41493C7.48801 8.38962 7.15001 8.46556 6.83801 8.64274C6.68201 8.74399 6.55201 8.87055 6.44801 8.99711C5.95401 8.94648 5.40801 9.12366 5.07001 9.47803C4.65401 9.90833 4.57601 10.9461 5.04401 11.832L5.14801 12.3889C5.27801 12.3889 5.40801 12.3889 5.51201 12.4648C5.64201 12.5661 5.69401 12.7686 5.87601 12.6926C5.98001 12.6673 6.05801 12.4648 6.11001 12.3636C6.31801 11.7055 6.39601 10.9967 6.31801 10.3133C6.44801 10.1615 6.63001 10.0602 6.81201 9.95896L6.78601 9.98427C7.15001 9.85771 7.54001 9.75646 7.87801 9.90833C8.13801 10.0349 8.29401 10.288 8.47601 10.5158C8.84001 10.9208 9.33401 11.1233 9.90601 11.1486C9.93201 11.503 9.90601 11.9839 9.90601 12.3383L10.218 11.7814C10.244 11.7308 10.27 11.7055 10.27 11.6549C10.322 11.6042 10.374 11.5283 10.452 11.427C10.634 11.2246 10.686 10.9208 10.582 10.693C10.868 10.4905 10.972 10.0855 10.79 9.80709Z" fill="#263238"/>
<path d="M10.2701 9.83239C10.2701 9.8577 10.2961 9.88301 10.2961 9.90833C10.2961 9.95895 10.2961 10.0349 10.2441 10.1108C10.2181 10.1614 10.1921 10.1868 10.1401 10.2121C10.0881 10.2374 10.0361 10.2627 9.98409 10.288C9.85409 10.3133 9.72409 10.2627 9.62009 10.1614L9.64609 10.1361C9.69809 10.1868 9.69809 10.2374 9.69809 10.3133C9.69809 10.3893 9.64609 10.4652 9.59409 10.5158C9.54209 10.5664 9.46409 10.5917 9.38609 10.5917C9.23009 10.6171 9.12609 10.5411 9.02209 10.4905C8.94409 10.4399 8.86609 10.3639 8.84009 10.3386C8.78809 10.288 8.78809 10.2627 8.78809 10.2627C8.78809 10.2627 8.81409 10.288 8.86609 10.3133C8.91809 10.3639 8.97009 10.4146 9.04809 10.4652C9.12609 10.5158 9.25609 10.5664 9.38609 10.5411C9.46409 10.5411 9.51609 10.5158 9.56809 10.4652C9.62009 10.4146 9.64609 10.3386 9.64609 10.2627C9.64609 10.2121 9.62009 10.1614 9.59409 10.1108L9.62009 10.0855C9.69809 10.1868 9.85409 10.2374 9.95809 10.2121C10.0621 10.1868 10.1661 10.1108 10.1921 10.0602C10.2441 9.98426 10.2441 9.90832 10.2441 9.88301C10.2961 9.8577 10.2701 9.83239 10.2701 9.83239Z" fill="#455B64"/>
<path d="M9.20401 8.89585C9.23001 8.92116 9.25601 8.92116 9.28201 8.94648C9.33401 8.97179 9.38601 9.02241 9.41201 9.12366C9.43801 9.19959 9.46401 9.32615 9.38601 9.4274C9.36001 9.47802 9.30801 9.52865 9.23001 9.52865C9.15201 9.55396 9.10001 9.52865 9.02201 9.47802C8.99601 9.45271 8.99601 9.45271 8.97001 9.4274L8.99601 9.40209C9.02201 9.47802 9.02201 9.52865 8.99601 9.60458C8.97001 9.65521 8.91801 9.70583 8.86601 9.73114C8.76201 9.78177 8.65801 9.75645 8.58001 9.73114C8.50201 9.70583 8.45001 9.65521 8.42401 9.60458C8.45001 9.62989 8.50201 9.68052 8.58001 9.70583C8.65801 9.73114 8.76201 9.75645 8.86601 9.70583C8.91801 9.68052 8.94401 9.65521 8.97001 9.57927C8.99601 9.52865 8.99601 9.47802 8.97001 9.40209L8.91801 9.30084L8.99601 9.40209C8.99601 9.4274 9.02201 9.4274 9.04801 9.45271C9.10001 9.47802 9.17801 9.50334 9.23001 9.47802C9.28201 9.47802 9.33401 9.4274 9.36001 9.37678C9.43801 9.27553 9.41201 9.17428 9.38601 9.09835C9.36001 9.02241 9.30801 8.97179 9.25601 8.92116C9.20401 8.92116 9.20401 8.89585 9.20401 8.89585Z" fill="#455B64"/>
<path d="M16.5619 15.0719L14.5599 16.5653C14.4299 16.6413 14.4299 16.8185 14.5339 16.9197C14.6119 17.021 14.7679 17.0463 14.8979 16.945L16.8999 15.4516L17.1599 14.9454L16.5619 15.0719Z" fill="#EE3866"/>
<path d="M14.5599 16.5653L14.8979 16.945L15.0019 16.8691L14.6899 16.4641L14.5599 16.5653Z" fill="#263238"/>
<path d="M14.4299 20.3115H14.3519L15.8339 17.8056L15.5999 17.0463C15.5999 17.0463 15.3399 16.0085 15.5479 15.7554C15.5479 15.7554 16.0419 15.1985 16.1979 15.1985C16.3539 15.1985 16.4839 15.2491 16.5099 15.3504C16.5099 15.3504 16.7699 15.3251 16.8479 15.401C16.9259 15.4769 16.9779 15.5782 16.9779 15.5782C16.9779 15.5782 17.2639 15.5529 17.3419 15.806C17.3419 15.806 17.6279 15.9579 17.6539 16.1604C17.6799 16.3629 17.6019 17.2994 17.4979 17.5525C17.4199 17.8056 17.0819 18.3119 16.9779 19.0459C16.8739 19.8053 16.5359 20.2862 16.2499 21.3746L15.4439 21.6783L14.4299 20.3115Z" fill="#FBBF9E"/>
<path d="M15.9639 15.9072C15.9639 15.9072 15.8859 15.8819 15.8079 15.8819C15.7039 15.8819 15.6519 15.9326 15.6519 15.9326C15.6519 15.9326 15.6519 15.9072 15.6779 15.8819C15.7039 15.8566 15.7559 15.8313 15.8079 15.8313C15.8599 15.8313 15.9119 15.8313 15.9379 15.8566C15.9639 15.8819 15.9639 15.8819 15.9639 15.9072Z" fill="#F7996E"/>
<path d="M2.23594 19.1218C2.23594 19.1218 1.32594 24.1336 1.37794 24.5892C1.42994 25.0701 1.66394 25.8042 2.20994 25.9307C2.75594 26.0573 3.24994 25.9307 3.24994 25.9307L2.59994 19.78L2.23594 19.1218Z" fill="#EE3866"/>
<path d="M4.88795 16.54C4.88795 16.54 3.79595 17.2994 3.56195 17.5019C2.54795 18.4131 2.33995 18.7928 2.23595 19.1218C2.13195 19.4256 2.93795 26.6901 2.93795 26.6901L3.09395 27.9557L10.712 27.981V21.5012L9.56796 16.945L8.83996 16.7425L8.70996 16.211C8.70996 16.211 7.82595 15.5782 6.39595 15.5529C5.95395 15.5529 5.32995 15.7047 4.96595 15.9832L4.88795 16.54Z" fill="#EE3866"/>
<path d="M8.70997 16.9703C8.70997 16.9703 9.48997 16.945 9.56797 16.945C9.80197 16.9956 10.478 17.5778 11.232 18.3119C11.96 18.9953 13.364 20.4634 13.364 20.4634C13.364 20.4634 13.624 20.2102 13.91 20.5393L15.028 18.97C15.028 18.97 16.692 19.1725 16.978 20.4127C16.978 20.4127 16.458 21.3746 16.042 22.058C16.042 22.058 14.482 24.5639 13.26 24.1083C12.142 23.7033 10.738 22.5896 10.53 22.3364L8.86597 21.1974C8.86597 21.1974 7.72197 19.0965 8.24197 18.0334C8.70997 16.9703 8.70997 16.9703 8.70997 16.9703Z" fill="#EE3866"/>
<path d="M8.84001 16.7425C8.84001 16.7425 8.814 16.7425 8.788 16.7425C8.762 16.7425 8.71001 16.7172 8.68401 16.7172C8.58001 16.6919 8.45 16.6666 8.268 16.616C7.904 16.54 7.41 16.4894 6.864 16.4388C6.318 16.4135 5.798 16.4135 5.46 16.4388C5.278 16.4641 5.122 16.4641 5.044 16.4894C4.992 16.4894 4.966 16.5147 4.94 16.5147C4.914 16.5147 4.888 16.5147 4.888 16.5147H4.914C4.94 16.5147 4.992 16.4894 5.018 16.4894C5.122 16.4641 5.252 16.4388 5.434 16.4135C5.798 16.3629 6.292 16.3629 6.864 16.3882C7.41 16.4135 7.904 16.4894 8.268 16.5653C8.45 16.5907 8.58001 16.6413 8.68401 16.6666C8.73601 16.6919 8.762 16.6919 8.788 16.6919C8.84 16.7425 8.84001 16.7425 8.84001 16.7425Z" fill="#263238"/>
<path d="M5.88808 16.36C5.9023 16.3581 5.89619 16.2331 5.87442 16.0808C5.85266 15.9285 5.82349 15.8066 5.80926 15.8085C5.79504 15.8104 5.80115 15.9354 5.82291 16.0877C5.84468 16.24 5.87385 16.362 5.88808 16.36Z" fill="#263238"/>
<path d="M6.16198 16.3375C6.16198 16.3375 6.10998 16.211 6.08398 16.0591C6.08398 15.9072 6.10998 15.7807 6.10998 15.7807C6.10998 15.7807 6.10998 15.9072 6.10998 16.0591C6.13598 16.211 6.18798 16.3375 6.16198 16.3375Z" fill="#263238"/>
<g opacity="0.3">
<path d="M4.914 16.54C6.11 16.7425 7.306 16.54 8.58001 16.6919C7.358 16.4388 6.084 16.3122 4.914 16.54Z" fill="black"/>
</g>
<g opacity="0.3">
<path d="M2.80795 25.956C2.13195 24.4373 2.20995 22.6908 2.31395 21.0455L2.80795 25.956Z" fill="black"/>
</g>
<path d="M2.23596 20.2103C2.23596 20.2356 2.23596 20.2609 2.23596 20.2862C2.23596 20.3368 2.26196 20.4128 2.26196 20.514C2.28796 20.7165 2.31396 20.9696 2.33996 21.324C2.41796 22.0074 2.49596 22.9439 2.59996 23.9817C2.70396 25.0195 2.83396 25.9561 2.91196 26.6395C2.96396 26.9685 2.98996 27.247 3.01596 27.4495C3.01596 27.5507 3.04196 27.6266 3.04196 27.6773C3.04196 27.7026 3.04196 27.7279 3.04196 27.7279C3.04196 27.7026 3.04196 27.7026 3.04196 27.6773C3.04196 27.6266 3.01596 27.5507 3.01596 27.4495C2.98996 27.2723 2.93796 26.9938 2.88596 26.6395C2.78196 25.9561 2.67796 25.0195 2.57396 23.9817C2.46996 22.9439 2.36596 22.0074 2.31396 21.324C2.28796 20.9949 2.26196 20.7165 2.23596 20.514C2.23596 20.4128 2.20996 20.3368 2.20996 20.2862C2.23596 20.2609 2.23596 20.2356 2.23596 20.2103Z" fill="#263238"/>
<path d="M7.38404 19.4003C7.38404 19.4003 7.35804 19.4003 7.33204 19.4003C7.30604 19.4003 7.25404 19.4003 7.20204 19.4003C7.07204 19.4003 6.91604 19.4003 6.68204 19.4003C6.24004 19.4003 5.64204 19.4509 4.99204 19.5268C4.34204 19.6028 3.74404 19.704 3.30204 19.8053C3.09404 19.8559 2.91204 19.8812 2.80804 19.9065C2.75604 19.9318 2.70404 19.9318 2.67804 19.9318C2.65204 19.9318 2.62604 19.9318 2.62604 19.9318C2.62604 19.9318 2.65204 19.9318 2.67804 19.9065C2.70404 19.9065 2.75604 19.8812 2.80804 19.8812C2.93804 19.8559 3.09404 19.8053 3.30204 19.7546C3.71804 19.6534 4.31604 19.5521 4.99204 19.4762C5.64204 19.4003 6.26604 19.375 6.68204 19.375C6.89004 19.375 7.07204 19.375 7.20204 19.375C7.25404 19.375 7.30604 19.375 7.33204 19.375C7.35804 19.4003 7.38404 19.4003 7.38404 19.4003Z" fill="#263238"/>
<path d="M4.55091 19.4561C4.58164 18.6039 4.59492 17.9126 4.58057 17.9121C4.56622 17.9116 4.52967 18.6021 4.49894 19.4543C4.46821 20.3066 4.45493 20.9978 4.46928 20.9983C4.48363 20.9988 4.52018 20.3083 4.55091 19.4561Z" fill="#263238"/>
<path d="M8.34601 20.919C8.34601 20.919 8.34601 20.8937 8.32001 20.8684C8.29401 20.8431 8.26801 20.7924 8.24201 20.7418C8.16401 20.6406 8.08601 20.4634 7.95601 20.2609C7.85201 20.0584 7.69601 19.8306 7.59201 19.5268C7.54001 19.375 7.51401 19.2231 7.48801 19.0712C7.46201 18.894 7.46201 18.7422 7.48801 18.565C7.51401 18.2106 7.59201 17.8816 7.74801 17.6031C7.82601 17.4766 7.90401 17.35 8.00801 17.2488C8.11201 17.1475 8.21601 17.0716 8.29401 16.9957C8.19001 17.0463 8.08601 17.1475 8.00801 17.2235C7.93001 17.3247 7.82601 17.4513 7.77401 17.5778C7.64401 17.8563 7.56601 18.1853 7.54001 18.5144C7.51401 18.6915 7.51401 18.8687 7.54001 19.0206C7.56601 19.1725 7.59201 19.3497 7.64401 19.4762C7.74801 19.7546 7.87801 20.0078 7.98201 20.2103C8.08601 20.4128 8.19001 20.5646 8.24201 20.6912C8.26801 20.7418 8.29401 20.7924 8.32001 20.8177C8.34601 20.919 8.34601 20.919 8.34601 20.919Z" fill="#263238"/>
<g opacity="0.3">
<path d="M2.72998 19.9318C3.19798 19.9065 3.69198 19.8559 4.15998 19.7546C4.10798 19.9571 4.08198 20.1596 4.08198 20.3874C4.23798 20.2356 4.34198 20.0331 4.39398 19.8306C4.41998 20.0584 4.54998 20.2609 4.75798 20.4127C4.80998 20.2103 4.80998 19.9824 4.78398 19.78C5.48598 19.704 6.21398 19.5775 6.91598 19.4509C5.48598 19.4256 4.08198 19.5775 2.70398 19.9571" fill="black"/>
</g>
<path d="M11.882 23.3995C11.882 23.3995 11.882 23.3996 11.856 23.3742C11.83 23.3489 11.804 23.3489 11.778 23.3236C11.7 23.273 11.596 23.1971 11.44 23.0958C11.154 22.9186 10.79 22.6402 10.374 22.3365C9.95797 22.0327 9.59397 21.7543 9.33397 21.5518C9.20397 21.4505 9.09997 21.3746 9.02197 21.2987C8.99597 21.2734 8.96997 21.248 8.94397 21.2227C8.96997 21.248 8.99597 21.248 9.02197 21.2987C9.09997 21.3493 9.20397 21.4252 9.33397 21.5265C9.59397 21.729 9.98397 22.0074 10.4 22.3111C10.816 22.6149 11.206 22.8933 11.466 23.0705C11.596 23.1717 11.7 23.2477 11.804 23.2983C11.83 23.3236 11.882 23.3489 11.882 23.3742C11.856 23.3742 11.882 23.3995 11.882 23.3995Z" fill="#263238"/>
<path d="M13.7279 21.7543C13.7279 21.7543 13.7279 21.6783 13.7279 21.5518C13.7279 21.4252 13.7019 21.248 13.6239 21.0455C13.5719 20.8431 13.4939 20.6912 13.4159 20.5899C13.3379 20.4887 13.2859 20.4128 13.3119 20.4128C13.3119 20.4128 13.3379 20.4381 13.3379 20.4634C13.3639 20.4887 13.3899 20.5393 13.4419 20.5899C13.5199 20.6912 13.5979 20.8684 13.6499 21.0455C13.7019 21.248 13.7279 21.4252 13.7279 21.5518C13.7279 21.6277 13.7279 21.6783 13.7279 21.7037C13.7279 21.729 13.7279 21.7543 13.7279 21.7543Z" fill="#263238"/>
<path d="M14.066 21.6277C14.066 21.6277 14.066 21.5518 14.092 21.4505C14.092 21.3493 14.092 21.1974 14.092 21.0455C14.066 20.8937 14.04 20.7418 14.014 20.6659C13.988 20.5646 13.962 20.514 13.962 20.514C13.962 20.514 13.962 20.5393 13.988 20.5646C14.014 20.5899 14.014 20.6406 14.04 20.6659C14.066 20.7671 14.118 20.8937 14.144 21.0709C14.17 21.2227 14.144 21.3746 14.144 21.4758C14.144 21.5265 14.118 21.5771 14.118 21.6024C14.092 21.6024 14.066 21.6277 14.066 21.6277Z" fill="#263238"/>
<path d="M16.666 20.919C16.64 20.8937 16.64 20.8937 16.64 20.8684C16.64 20.8684 16.64 20.8431 16.614 20.8177C16.588 20.7924 16.562 20.7671 16.536 20.7418C16.51 20.6912 16.484 20.6659 16.458 20.5899C16.432 20.4887 16.38 20.3621 16.276 20.2356C16.224 20.185 16.172 20.1343 16.094 20.0584C16.042 20.0078 15.964 19.9571 15.886 19.9065C15.808 19.8559 15.73 19.8053 15.678 19.78C15.6 19.7547 15.522 19.704 15.47 19.6787C15.392 19.6534 15.34 19.6028 15.262 19.5775C15.21 19.5522 15.132 19.5268 15.08 19.5015C15.054 19.5015 15.028 19.4762 15.002 19.4762C14.976 19.4509 14.95 19.4509 14.95 19.4256C14.924 19.4256 14.898 19.4003 14.898 19.4003C14.872 19.4003 14.872 19.375 14.846 19.375C14.82 19.3497 14.794 19.3497 14.768 19.3497C14.742 19.3497 14.742 19.3243 14.742 19.3243C14.742 19.3243 14.742 19.3243 14.768 19.3243C14.794 19.3243 14.82 19.3497 14.846 19.3497C14.872 19.375 14.898 19.375 14.95 19.4003C14.976 19.4003 15.002 19.4256 15.002 19.4256C15.028 19.4256 15.054 19.4509 15.08 19.4509C15.132 19.4762 15.184 19.5015 15.262 19.5268C15.314 19.5522 15.392 19.5775 15.47 19.6281C15.548 19.6534 15.626 19.704 15.678 19.7293C15.756 19.7546 15.834 19.8053 15.912 19.8559C15.99 19.9065 16.068 19.9571 16.12 20.0078C16.172 20.0584 16.25 20.109 16.302 20.185C16.406 20.3115 16.458 20.4381 16.484 20.5393C16.51 20.5899 16.51 20.6406 16.536 20.6912C16.562 20.7165 16.588 20.7418 16.614 20.7924C16.614 20.8177 16.614 20.8177 16.64 20.8431C16.64 20.8937 16.666 20.8937 16.666 20.919Z" fill="#263238"/>
<path d="M9.59399 27.8291C9.60835 27.8291 9.61999 26.4692 9.61999 24.7917C9.61999 23.1142 9.60835 21.7543 9.59399 21.7543C9.57963 21.7543 9.56799 23.1142 9.56799 24.7917C9.56799 26.4692 9.57963 27.8291 9.59399 27.8291Z" fill="#263238"/>
</g>
</g>
<defs>
<clipPath id="clip0_194_2457">
<rect width="28" height="27" fill="white"/>
</clipPath>
</defs>
</svg>
